<svg xmlns="http://www.w3.org/2000/svg" xmlns:xlink="http://www.w3.org/1999/xlink" width="500" zoomAndPan="magnify" viewBox="0 0 375 374.999991" height="500" preserveAspectRatio="xMidYMid meet" version="1.0"><defs><clipPath id="dcabb4724c"><path d="M 54.027344 65 L 336 65 L 336 328 L 54.027344 328 Z M 54.027344 65 " clip-rule="nonzero"/></clipPath><clipPath id="170041a795"><path d="M 58 54 L 156 54 L 156 131 L 58 131 Z M 58 54 " clip-rule="nonzero"/></clipPath><clipPath id="853b7b4064"><path d="M 54.03125 63.394531 L 148.117188 44.320312 L 162.570312 115.621094 L 68.484375 134.695312 Z M 54.03125 63.394531 " clip-rule="nonzero"/></clipPath><clipPath id="afa3ff42c9"><path d="M 54.03125 63.394531 L 148.117188 44.320312 L 162.570312 115.621094 L 68.484375 134.695312 Z M 54.03125 63.394531 " clip-rule="nonzero"/></clipPath><clipPath id="bfcb7f62ab"><path d="M 166.15625 105 L 301 105 L 301 326.046875 L 166.15625 326.046875 Z M 166.15625 105 " clip-rule="nonzero"/></clipPath><clipPath id="0ad9ae3d75"><path d="M 86 235 L 116 235 L 116 284.828125 L 86 284.828125 Z M 86 235 " clip-rule="nonzero"/></clipPath><clipPath id="6c5d39f954"><path d="M 155 178 L 187.160156 178 L 187.160156 189 L 155 189 Z M 155 178 " clip-rule="nonzero"/></clipPath><clipPath id="c1e58e4c7b"><path d="M 159 185 L 187.160156 185 L 187.160156 234 L 159 234 Z M 159 185 " clip-rule="nonzero"/></clipPath><clipPath id="287832c737"><path d="M 81.410156 135 L 106 135 L 106 188 L 81.410156 188 Z M 81.410156 135 " clip-rule="nonzero"/></clipPath></defs><g clip-path="url(#dcabb4724c)"><path fill="#ff7f30" d="M 332.351562 229.0625 L 326.980469 245.980469 C 312.746094 279.246094 288.75 302.828125 254.992188 316.734375 C 221.042969 330.578125 184.90625 330.832031 146.582031 317.503906 C 110.421875 303.042969 84.296875 279.804688 68.203125 247.792969 C 63.066406 237.457031 59.382812 226.65625 57.152344 215.390625 L 55.027344 198.324219 C 54.378906 186.78125 55.4375 175.144531 58.203125 163.425781 C 67.789062 127.71875 88.332031 101.019531 119.832031 83.324219 C 151.332031 65.632812 186.605469 60.980469 225.65625 69.371094 C 264.269531 79.574219 293.613281 99.699219 313.683594 129.738281 C 333.753906 159.777344 339.980469 192.886719 332.351562 229.0625 " fill-opacity="1" fill-rule="nonzero"/></g><g clip-path="url(#170041a795)"><g clip-path="url(#853b7b4064)"><g clip-path="url(#afa3ff42c9)"><path fill="#1e1e1e" d="M 83.515625 130.289062 C 85.054688 129.640625 88.121094 128.3125 91.257812 127.117188 C 94.398438 125.921875 97.613281 124.859375 100.902344 123.929688 C 104.191406 123 107.554688 122.195312 110.105469 121.695312 C 112.65625 121.191406 114.351562 120.898438 116 120.644531 C 117.652344 120.386719 119.261719 120.171875 120.824219 119.988281 C 122.390625 119.800781 123.90625 119.652344 125.765625 119.488281 C 127.621094 119.328125 129.859375 119.160156 132.171875 119.019531 C 134.484375 118.882812 136.871094 118.773438 139.339844 118.703125 C 141.808594 118.632812 144.351562 118.597656 146.316406 118.539062 C 148.277344 118.484375 149.144531 118.386719 149.929688 118.265625 C 150.71875 118.144531 151.492188 117.964844 152.539062 117.515625 C 153.585938 117.066406 155.410156 115.214844 155.160156 111.082031 C 154.90625 106.953125 154.03125 102.996094 153.433594 98.125 C 152.835938 93.253906 152.433594 87.492188 152.277344 80.851562 C 152.125 74.210938 152.25 66.695312 150.789062 60.273438 C 149.324219 53.851562 145.894531 54.175781 144.96875 54.992188 C 144.042969 55.808594 143.671875 56.382812 143.367188 56.957031 C 143.066406 57.53125 142.765625 58.171875 142.320312 59.195312 C 141.875 60.21875 141.089844 62.066406 140.027344 64.582031 C 138.96875 67.097656 137.628906 70.289062 136.027344 74.167969 C 134.421875 78.042969 132.511719 82.585938 131.402344 85.25 C 130.296875 87.914062 130.183594 88.140625 130.148438 88.210938 C 130.117188 88.285156 130.21875 88.195312 130.5625 88.007812 C 130.90625 87.820312 131.496094 87.492188 131.71875 87.484375 C 131.9375 87.476562 131.855469 87.429688 131.445312 87.175781 C 131.03125 86.917969 130.386719 86.433594 129.570312 85.71875 C 128.753906 85.003906 127.792969 84.074219 126.929688 83.175781 C 126.070312 82.277344 125.007812 81.042969 123.3125 79.003906 C 121.621094 76.960938 119.359375 74.113281 116.515625 70.484375 C 113.671875 66.855469 110.25 62.445312 108.113281 59.699219 C 105.976562 56.949219 105.535156 56.46875 105.023438 56.007812 C 104.511719 55.546875 103.878906 55.101562 103.007812 54.710938 C 102.132812 54.320312 100.914062 54.109375 99.886719 54.207031 C 98.863281 54.300781 96.972656 55.246094 96.078125 56.351562 C 95.1875 57.457031 94.8125 58.347656 94.605469 59.136719 C 94.394531 59.921875 94.265625 60.6875 93.558594 68.96875 C 92.851562 77.253906 91.957031 92.902344 91.910156 93.425781 C 91.867188 93.949219 91.8125 94.390625 91.769531 94.671875 C 91.730469 94.957031 91.714844 95.046875 91.800781 94.847656 C 91.890625 94.648438 95.90625 91.886719 95.753906 91.773438 C 95.597656 91.660156 93.585938 90.992188 90.40625 89.707031 C 87.222656 88.421875 82.972656 86.558594 77.6875 84.128906 C 72.402344 81.699219 66.0625 78.714844 65.34375 78.453125 C 64.625 78.195312 63.863281 78.050781 62.855469 78.101562 C 61.847656 78.15625 60.640625 78.621094 59.679688 79.554688 C 58.722656 80.484375 58.226562 84.117188 59.457031 86.957031 C 60.6875 89.800781 62.519531 93.09375 64.941406 96.910156 C 67.367188 100.730469 70.402344 105.09375 73.140625 108.511719 C 75.882812 111.929688 80.242188 109.050781 78.644531 106.632812 C 78.644531 106.632812 76.140625 101.382812 73.777344 97.125 C 71.414062 92.871094 69.621094 89.3125 68.429688 86.492188 C 67.242188 83.667969 66.640625 81.636719 66.164062 83.6875 C 65.683594 85.734375 64.816406 86.378906 63.992188 86.609375 C 63.167969 86.835938 62.65625 86.816406 62.4375 86.777344 C 62.214844 86.734375 61.996094 86.644531 67.808594 89.886719 C 73.625 93.132812 78.535156 95.734375 82.535156 97.714844 C 86.539062 99.691406 89.679688 101.0625 92.199219 101.875 C 94.71875 102.683594 97.4375 102.757812 99.75 100.765625 C 102.058594 98.773438 102.300781 98.039062 102.460938 97.355469 C 102.625 96.667969 102.742188 95.972656 102.835938 95.226562 C 102.933594 94.484375 103.015625 93.570312 103.761719 77.90625 C 104.507812 62.242188 104.519531 61.976562 104.539062 61.765625 C 104.554688 61.558594 104.527344 61.609375 104.28125 62.039062 C 104.035156 62.472656 103.183594 63.324219 101.964844 63.792969 C 100.746094 64.261719 100.300781 64.242188 99.613281 64.070312 C 98.925781 63.894531 98.609375 63.71875 98.523438 63.644531 C 98.441406 63.570312 98.507812 63.613281 98.644531 63.738281 C 98.785156 63.867188 102.921875 68.523438 106.4375 72.464844 C 109.953125 76.410156 112.847656 79.625 115.117188 82.121094 C 117.382812 84.617188 119.042969 86.402344 120.128906 87.488281 C 121.21875 88.578125 122.449219 89.714844 123.601562 90.699219 C 124.757812 91.683594 125.835938 92.5 126.878906 93.15625 C 127.921875 93.8125 128.992188 94.3125 130.082031 94.570312 C 131.171875 94.832031 132.160156 94.847656 133.144531 94.417969 C 134.128906 93.988281 134.851562 93.460938 135.363281 92.894531 C 135.878906 92.324219 136.273438 91.734375 136.605469 91.109375 C 136.9375 90.484375 139.253906 85.582031 141.253906 81.355469 C 143.257812 77.128906 144.96875 73.585938 146.359375 70.710938 C 147.746094 67.832031 148.84375 65.640625 149.621094 64.125 C 150.398438 62.605469 150.699219 62.019531 150.914062 61.644531 C 151.128906 61.269531 151.242188 61.097656 151.117188 61.257812 C 150.992188 61.414062 149.976562 62.160156 146.804688 60.042969 C 143.636719 57.925781 142.742188 66.089844 142.214844 73.578125 C 141.683594 81.066406 141.574219 87.800781 141.933594 93.785156 C 142.292969 99.773438 143.089844 105.023438 144.269531 109.402344 C 145.449219 113.78125 146.019531 109.429688 147.183594 108.425781 C 148.347656 107.421875 148.570312 107.351562 148.367188 107.394531 C 148.167969 107.441406 147.691406 107.519531 147.132812 107.601562 C 146.578125 107.679688 144.003906 107.808594 141.378906 107.984375 C 138.75 108.15625 136.199219 108.367188 133.726562 108.617188 C 131.25 108.867188 128.847656 109.160156 126.535156 109.5 C 124.222656 109.835938 122.640625 110.09375 121.007812 110.390625 C 119.375 110.691406 117.707031 111.027344 116.007812 111.402344 C 114.308594 111.777344 112.570312 112.183594 110.769531 112.632812 C 108.96875 113.082031 105.40625 114.136719 101.925781 115.324219 C 98.441406 116.507812 95.058594 117.839844 91.78125 119.308594 C 88.5 120.777344 85.324219 122.390625 83.785156 123.316406 C 80.734375 125.046875 85.027344 129.488281 83.515625 130.289062 Z M 83.515625 130.289062 " fill-opacity="1" fill-rule="nonzero"/></g></g></g><g clip-path="url(#bfcb7f62ab)"><path fill="#000000" d="M 275.511719 201.816406 C 275.714844 202.765625 275.890625 203.726562 276.128906 204.660156 C 276.230469 205.089844 276.128906 205.632812 276.648438 205.898438 C 277 205.53125 276.886719 205.0625 276.914062 204.632812 C 277.011719 202.90625 277.355469 201.226562 277.695312 199.53125 C 277.871094 198.6875 278.007812 197.839844 278.023438 196.96875 C 278.070312 195.199219 278.363281 193.472656 278.703125 191.742188 C 278.929688 190.578125 279.359375 189.503906 280.078125 188.570312 C 280.972656 187.398438 281.601562 186.097656 282.054688 184.695312 C 282.535156 183.242188 283.089844 181.800781 283.65625 180.375 C 284.324219 178.695312 284.703125 176.941406 285.019531 175.171875 C 285.144531 174.441406 285.28125 173.695312 285.445312 172.976562 C 285.597656 172.269531 285.925781 171.648438 286.441406 171.117188 C 287.273438 170.273438 287.828125 169.261719 288.195312 168.152344 C 288.839844 166.230469 289.480469 164.324219 290.109375 162.390625 C 290.503906 161.207031 290.464844 159.957031 290.578125 158.730469 C 290.640625 158.097656 290.691406 157.46875 290.792969 156.835938 C 290.957031 155.890625 291.308594 155.042969 291.863281 154.273438 C 292.039062 154.03125 292.203125 153.78125 292.394531 153.550781 C 292.898438 152.933594 293.25 152.238281 293.503906 151.492188 C 294.335938 149.042969 295.304688 146.644531 296.339844 144.285156 C 297.109375 142.527344 297.789062 140.761719 298.105469 138.851562 C 298.40625 136.984375 298.292969 135.203125 297.5 133.472656 C 297.144531 132.703125 296.691406 132.035156 296.011719 131.542969 C 295.683594 131.300781 295.332031 131.074219 295.003906 130.832031 C 294.109375 130.203125 293.113281 130.164062 292.101562 130.390625 C 290.90625 130.65625 289.882812 131.261719 289.050781 132.171875 C 288.574219 132.703125 288.144531 133.269531 287.777344 133.890625 C 285.988281 136.882812 284.425781 139.988281 283.128906 143.234375 C 282.546875 144.675781 282.28125 146.191406 282.21875 147.730469 C 282.183594 148.628906 281.90625 149.285156 281.160156 149.828125 C 279.898438 150.75 278.96875 151.949219 278.1875 153.300781 C 276.671875 155.914062 275.460938 158.628906 274.894531 161.609375 C 274.757812 162.34375 274.644531 163.085938 274.582031 163.832031 C 274.53125 164.476562 274.265625 164.96875 273.796875 165.398438 C 273.546875 165.625 273.320312 165.878906 273.082031 166.105469 C 272.007812 167.152344 271.328125 168.429688 270.9375 169.867188 C 270.519531 171.359375 270.421875 172.898438 270.292969 174.425781 C 270.105469 176.761719 269.5 179 268.554688 181.132812 C 268.023438 182.34375 267.257812 183.378906 266.234375 184.253906 C 264.988281 185.324219 263.902344 186.5625 262.945312 187.925781 C 260.5 191.398438 258.496094 195.113281 256.832031 199.015625 C 255.835938 201.363281 254.839844 203.699219 253.804688 206.023438 C 253.527344 206.640625 253.589844 207.148438 253.945312 207.703125 C 254.535156 208.613281 255.332031 209.269531 256.289062 209.738281 C 258.152344 210.644531 260.109375 211.25 262.148438 211.582031 C 264.695312 211.996094 267.230469 212.503906 269.726562 213.132812 C 270.519531 213.335938 271.277344 213.636719 272.058594 213.902344 C 271.945312 214.207031 271.792969 214.054688 271.679688 214.03125 C 269.359375 213.4375 267.015625 213.019531 264.632812 212.765625 C 262.667969 212.550781 260.699219 212.363281 258.746094 211.972656 C 256.71875 211.566406 254.777344 210.910156 252.984375 209.863281 C 252.140625 209.371094 252.066406 209.382812 251.597656 210.230469 C 250.730469 211.808594 249.933594 213.410156 249.050781 214.976562 C 248.648438 215.683594 248.773438 216.238281 249.292969 216.808594 C 249.671875 217.226562 250.085938 217.589844 250.550781 217.917969 C 252.027344 218.941406 253.503906 219.964844 255.101562 220.785156 C 256.113281 221.304688 256.566406 221.683594 257.371094 222.617188 C 257.160156 222.769531 257.058594 222.554688 256.929688 222.492188 C 256.765625 222.402344 256.617188 222.277344 256.453125 222.199219 C 254.308594 221.316406 252.242188 220.253906 249.996094 219.648438 C 249.078125 219.410156 248.171875 219.296875 247.238281 219.546875 C 246.882812 219.636719 246.621094 219.789062 246.429688 220.105469 C 246.203125 220.496094 245.964844 220.875 245.761719 221.265625 C 244.652344 223.324219 243.214844 225.144531 241.714844 226.910156 C 240.582031 228.238281 239.15625 229.195312 237.605469 229.980469 C 237.242188 230.167969 236.886719 230.371094 236.535156 230.574219 C 236.394531 230.660156 236.359375 230.824219 236.445312 230.964844 C 236.558594 231.152344 236.6875 231.34375 236.835938 231.507812 C 238.828125 233.71875 239.671875 236.40625 239.964844 239.300781 C 240.191406 241.457031 240.367188 243.617188 240.566406 245.789062 C 240.644531 246.609375 240.617188 247.433594 240.59375 248.265625 C 240.480469 251.484375 240.011719 254.679688 239.660156 257.875 C 239.507812 259.253906 239.507812 260.640625 239.585938 262.03125 C 239.621094 262.789062 239.863281 263.496094 240.289062 264.140625 C 241.160156 265.453125 242.042969 266.753906 243.316406 267.726562 C 243.367188 267.765625 243.390625 267.851562 243.441406 267.914062 C 243.265625 268.117188 243.089844 267.941406 242.964844 267.878906 C 241.238281 267.042969 239.800781 265.90625 239.042969 264.0625 C 238.890625 263.683594 238.726562 263.292969 238.398438 263.027344 C 238.261719 262.914062 238.097656 262.914062 238.023438 263.066406 C 237.84375 263.394531 237.707031 263.734375 237.554688 264.089844 C 237.027344 265.390625 236.230469 266.5 235.148438 267.449219 C 235.035156 267.15625 235.234375 266.992188 235.324219 266.828125 C 236.34375 264.933594 237.140625 262.964844 237.53125 260.84375 C 238.097656 257.710938 238.550781 254.554688 238.578125 251.359375 C 238.589844 249.453125 238.613281 247.53125 238.589844 245.625 C 238.5625 243.253906 238.136719 240.941406 237.417969 238.667969 C 237.289062 238.277344 237.140625 237.898438 236.988281 237.507812 C 236.28125 235.75 235.148438 234.347656 233.585938 233.289062 C 232.839844 232.78125 232.058594 232.328125 231.253906 231.949219 C 230.34375 231.519531 229.425781 231.089844 228.503906 230.6875 C 227.269531 230.144531 226.070312 229.539062 224.910156 228.855469 C 224.722656 228.742188 224.519531 228.628906 224.332031 228.527344 C 223.613281 228.148438 223.511719 228.171875 223.132812 228.90625 C 221.734375 231.632812 219.867188 234.007812 217.699219 236.15625 C 216.816406 237.027344 215.859375 237.808594 214.8125 238.453125 C 213.25 239.425781 211.585938 240.183594 209.933594 240.992188 C 209.28125 241.308594 208.585938 241.421875 207.867188 241.410156 C 207.792969 241.410156 207.691406 241.28125 207.640625 241.207031 C 207.617188 241.167969 207.652344 241.054688 207.691406 241.003906 C 208.03125 240.636719 208.484375 240.449219 208.902344 240.207031 C 211.09375 238.957031 213.0625 237.417969 214.824219 235.613281 C 216.503906 233.894531 218.054688 232.074219 219.464844 230.132812 C 220.738281 228.402344 221.757812 226.53125 222.554688 224.535156 C 222.667969 224.257812 222.753906 223.96875 222.832031 223.691406 C 222.84375 223.640625 222.792969 223.539062 222.742188 223.5 C 222.691406 223.476562 222.589844 223.476562 222.542969 223.5 C 222.328125 223.652344 222.125 223.816406 221.910156 223.96875 C 221.242188 224.472656 220.511719 224.828125 219.703125 225.03125 C 219.492188 225.078125 219.261719 225.167969 219.050781 225.15625 C 218.671875 225.128906 218.242188 225.433594 217.902344 225.03125 C 218.054688 224.636719 218.457031 224.5625 218.757812 224.359375 C 219.125 224.09375 219.503906 223.855469 219.867188 223.589844 C 221.582031 222.351562 222.894531 220.824219 223.613281 218.804688 C 224.09375 217.464844 224.582031 216.125 225.0625 214.789062 C 225.136719 214.585938 225.175781 214.359375 225.1875 214.132812 C 225.203125 213.953125 225.050781 213.839844 224.898438 213.878906 C 224.570312 213.941406 224.242188 214.042969 223.929688 214.144531 C 222.753906 214.523438 221.597656 214.976562 220.371094 215.167969 C 220.121094 215.203125 219.855469 215.242188 219.589844 215.21875 C 219.339844 215.203125 219.0625 215.167969 218.898438 214.925781 C 218.796875 214.773438 219 214.558594 219.464844 214.332031 C 220.6875 213.765625 221.898438 213.183594 223.132812 212.628906 C 227.582031 210.609375 231.757812 208.132812 235.511719 205 C 237.039062 203.738281 238.550781 202.449219 240.0625 201.160156 C 240.632812 200.683594 241.160156 200.140625 241.726562 199.660156 C 244.125 197.625 245.574219 195.011719 246.441406 192.03125 C 246.644531 191.3125 246.882812 190.605469 246.960938 189.847656 C 246.972656 189.746094 246.933594 189.605469 246.871094 189.542969 C 246.746094 189.429688 246.59375 189.492188 246.46875 189.59375 C 246.203125 189.808594 245.953125 190.023438 245.6875 190.238281 C 244.714844 191.058594 243.707031 191.828125 242.625 192.511719 C 241.917969 192.941406 241.199219 193.332031 240.429688 193.636719 C 238.726562 194.292969 237 194.378906 235.273438 193.773438 C 231.71875 192.523438 229.082031 190.210938 227.394531 186.828125 C 226.902344 185.84375 226.652344 184.78125 226.523438 183.710938 C 226.386719 182.546875 226.714844 181.488281 227.28125 180.488281 C 227.785156 179.605469 228.441406 178.835938 229.160156 178.113281 C 229.375 177.898438 229.601562 177.699219 229.800781 177.484375 C 229.867188 177.40625 229.941406 177.242188 229.914062 177.191406 C 229.800781 177.042969 229.652344 177.117188 229.523438 177.191406 C 229.171875 177.394531 228.820312 177.609375 228.464844 177.824219 C 227.105469 178.683594 225.742188 179.527344 224.394531 180.414062 C 221.179688 182.546875 217.976562 184.679688 214.976562 187.117188 C 211.546875 189.898438 209.003906 193.269531 207.339844 197.347656 C 206.820312 198.636719 206.265625 199.898438 205.738281 201.1875 C 205.410156 201.984375 205.105469 202.789062 204.90625 203.625 C 204.792969 204.089844 204.628906 204.558594 204.464844 205.011719 C 203.039062 208.914062 201.742188 212.867188 200.519531 216.832031 C 199.648438 219.664062 198.664062 222.453125 197.730469 225.257812 C 197.164062 226.960938 196.710938 228.703125 196.472656 230.484375 C 195.980469 234.222656 196.28125 237.886719 197.355469 241.484375 C 197.769531 242.886719 198.199219 244.289062 198.804688 245.613281 C 200.769531 250.019531 201.953125 254.65625 203.015625 259.339844 C 203.503906 261.5 203.933594 263.660156 204.578125 265.78125 C 205.472656 268.773438 206.734375 271.601562 208.21875 274.34375 C 209.769531 277.210938 212.027344 279.304688 214.964844 280.695312 C 216.425781 281.390625 217.941406 281.90625 219.492188 282.335938 C 220.75 282.679688 222 282.652344 223.246094 282.273438 C 223.816406 282.097656 224.382812 281.90625 224.960938 281.742188 C 225.164062 281.691406 225.363281 281.527344 225.59375 281.679688 C 225.605469 281.894531 225.441406 282.007812 225.316406 282.148438 C 224.027344 283.5 222.742188 284.851562 221.320312 286.074219 C 219.78125 287.402344 218.480469 288.953125 217.6875 290.875 C 217.511719 291.289062 217.371094 291.707031 217.335938 292.160156 C 217.207031 293.691406 217.082031 295.21875 216.90625 296.746094 C 216.753906 298.046875 216.527344 299.335938 216.375 300.636719 C 216.238281 301.859375 216.050781 303.097656 216.050781 304.324219 C 216.050781 306.355469 215.773438 308.351562 215.496094 310.359375 C 215.292969 311.773438 215.140625 313.175781 215.089844 314.601562 C 215.027344 316.207031 214.875 317.808594 214.777344 319.425781 C 214.664062 321.257812 214.460938 323.089844 214.449219 324.921875 C 214.449219 325.25 214.511719 325.601562 214.296875 325.90625 C 214.246094 325.980469 214.121094 326.019531 214.019531 326.03125 C 213.96875 326.042969 213.867188 325.980469 213.832031 325.929688 C 213.765625 325.84375 213.71875 325.742188 213.691406 325.628906 C 212.984375 323.125 212.582031 320.589844 212.316406 318.011719 C 212.117188 316.15625 211.875 314.300781 211.789062 312.417969 C 211.761719 311.785156 211.699219 311.140625 211.675781 310.511719 C 211.585938 308.527344 211.523438 306.546875 211.421875 304.5625 C 211.382812 303.742188 211.257812 302.921875 211.195312 302.101562 C 211.042969 300.078125 210.929688 298.058594 210.753906 296.050781 C 210.667969 295.042969 210.476562 294.054688 210.3125 293.046875 C 209.949219 290.683594 209.582031 288.308594 209.203125 285.949219 C 209.101562 285.316406 208.953125 284.699219 208.824219 284.078125 C 208.511719 282.449219 207.96875 280.898438 207.222656 279.417969 C 205.410156 275.757812 203.921875 271.957031 202.195312 268.257812 C 202.054688 267.953125 201.929688 267.636719 201.828125 267.320312 C 199.9375 261.625 197.730469 256.058594 195.398438 250.539062 C 194.289062 247.910156 193.269531 245.261719 192.449219 242.53125 C 191.84375 240.523438 191.351562 238.480469 191.113281 236.394531 C 190.925781 234.753906 190.910156 233.113281 190.9375 231.457031 C 190.976562 228.550781 191.441406 225.722656 192.25 222.933594 C 192.375 222.503906 192.476562 222.0625 192.539062 221.621094 C 192.589844 221.242188 192.726562 220.898438 192.867188 220.546875 C 194.125 217.488281 195.183594 214.382812 196.082031 211.199219 C 196.21875 210.695312 196.359375 210.191406 196.546875 209.699219 C 197.011719 208.449219 197.191406 207.160156 197.214844 205.847656 C 197.277344 202.097656 197.152344 198.359375 196.609375 194.644531 C 196.195312 191.855469 195.5 189.140625 194.515625 186.5 C 193.796875 184.566406 193.09375 182.636719 192.363281 180.714844 C 191.039062 177.21875 189.878906 173.65625 188.832031 170.058594 C 187.773438 166.394531 186.273438 162.949219 184.253906 159.714844 C 182.71875 157.238281 181.320312 154.664062 180.058594 152.023438 C 178.105469 147.933594 176.589844 143.652344 175.292969 139.308594 C 174.761719 137.550781 174.195312 135.808594 173.566406 134.078125 C 172.820312 132.035156 171.953125 130.050781 170.917969 128.132812 C 169.769531 125.984375 168.675781 123.8125 167.804688 121.527344 C 167.175781 119.871094 166.65625 118.191406 166.429688 116.4375 C 166.203125 114.757812 166.164062 113.078125 166.570312 111.410156 C 166.847656 110.273438 167.300781 109.214844 167.96875 108.242188 C 168.484375 107.484375 169.140625 106.890625 169.996094 106.535156 C 170.375 106.386719 170.742188 106.195312 171.105469 105.992188 C 173 104.90625 176.640625 104.792969 178.796875 105.992188 C 180.324219 106.839844 181.660156 107.902344 182.804688 109.203125 C 184.027344 110.578125 185.085938 112.066406 186.046875 113.648438 C 187.332031 115.769531 188.378906 118.003906 189.324219 120.289062 C 189.828125 121.5 190.332031 122.714844 190.835938 123.914062 C 192.296875 127.460938 194.203125 130.757812 196.546875 133.8125 C 196.9375 134.320312 197.316406 134.824219 197.707031 135.328125 C 201.210938 139.800781 204.074219 144.660156 206.417969 149.839844 C 207.703125 152.667969 208.9375 155.523438 210.226562 158.351562 C 211.546875 161.292969 212.972656 164.171875 214.636719 166.9375 C 214.699219 167.039062 214.738281 167.140625 214.8125 167.230469 C 215.101562 167.582031 215.167969 168.164062 215.746094 168.238281 C 216.085938 167.859375 215.921875 167.394531 215.972656 166.964844 C 216.226562 164.867188 216.753906 162.847656 217.726562 160.953125 C 218.671875 159.109375 220.03125 157.632812 221.757812 156.507812 C 224.484375 154.738281 227.457031 153.730469 230.734375 153.714844 C 233.75 153.703125 236.699219 154.144531 239.558594 155.09375 C 239.949219 155.21875 240.328125 155.371094 240.707031 155.535156 C 243.226562 156.632812 244.664062 158.527344 244.96875 161.269531 C 245.09375 162.378906 245.269531 163.492188 245.246094 164.628906 C 245.246094 164.816406 245.246094 165.007812 245.269531 165.183594 C 245.28125 165.320312 245.308594 165.511719 245.496094 165.511719 C 245.585938 165.511719 245.722656 165.4375 245.773438 165.359375 C 245.988281 165.058594 246.179688 164.730469 246.378906 164.414062 C 246.910156 163.59375 247.414062 162.757812 247.957031 161.964844 C 248.484375 161.191406 249.140625 160.511719 249.847656 159.90625 C 251.296875 158.652344 252.933594 158.300781 254.761719 158.832031 C 255.59375 159.070312 256.390625 159.386719 257.171875 159.753906 C 258.898438 160.5625 260.550781 161.507812 262.152344 162.570312 C 263.953125 163.769531 265.464844 165.246094 266.523438 167.152344 C 266.601562 167.28125 266.6875 167.40625 266.777344 167.53125 C 266.902344 167.695312 267.140625 167.695312 267.242188 167.519531 C 267.320312 167.394531 267.394531 167.253906 267.445312 167.117188 C 267.875 166.027344 268.414062 165.007812 269.035156 164.019531 C 271.644531 159.816406 273.8125 155.371094 275.902344 150.886719 C 278.097656 146.203125 280.175781 141.480469 282.207031 136.730469 C 282.886719 135.152344 283.644531 133.597656 284.386719 132.046875 C 284.855469 131.0625 285.410156 130.125 286.050781 129.242188 C 286.53125 128.574219 287.074219 127.953125 287.703125 127.410156 C 288.824219 126.453125 290.125 125.960938 291.597656 125.894531 C 295.835938 125.695312 298.46875 128.183594 299.742188 131.097656 C 300.828125 133.585938 301.140625 136.199219 300.511719 138.902344 C 300.046875 140.886719 299.378906 142.78125 298.570312 144.636719 C 296.792969 148.691406 295.253906 152.820312 294.007812 157.074219 C 293.601562 158.441406 293.175781 159.789062 292.722656 161.140625 C 291.6875 164.273438 290.566406 167.367188 289.34375 170.4375 C 288.6875 172.078125 288.132812 173.746094 287.640625 175.425781 C 286.667969 178.769531 285.558594 182.066406 284.386719 185.351562 C 282.546875 190.464844 281.035156 195.679688 280.140625 201.046875 C 279.6875 203.777344 279.296875 206.515625 279.082031 209.292969 C 278.929688 211.277344 278.902344 213.257812 278.902344 215.242188 C 278.902344 216.367188 279.042969 217.476562 279.246094 218.589844 C 279.773438 221.621094 280.214844 224.648438 280.519531 227.707031 C 280.832031 230.964844 280.882812 234.210938 280.683594 237.46875 C 280.542969 239.640625 280.175781 241.773438 279.710938 243.910156 C 279.496094 244.855469 279.308594 245.816406 279.132812 246.761719 C 278.539062 249.753906 277.65625 252.636719 276.269531 255.363281 C 275.070312 257.699219 273.699219 259.921875 272.183594 262.070312 C 271.402344 263.167969 270.632812 264.265625 269.867188 265.378906 C 269.375 266.085938 268.945312 266.828125 268.453125 267.535156 C 267.949219 268.257812 267.8125 269.015625 267.925781 269.871094 C 268.136719 271.476562 268.464844 273.042969 268.933594 274.582031 C 269.234375 275.582031 269.539062 276.589844 269.816406 277.601562 C 270.269531 279.304688 270.496094 281.050781 270.632812 282.804688 C 270.925781 286.429688 270.949219 290.066406 271.023438 293.691406 C 271.101562 297.742188 271.515625 301.757812 272.25 305.738281 C 272.527344 307.242188 272.613281 308.78125 272.777344 310.308594 C 272.789062 310.382812 272.765625 310.460938 272.738281 310.523438 C 272.726562 310.5625 272.703125 310.597656 272.664062 310.597656 C 272.601562 310.613281 272.488281 310.625 272.460938 310.585938 C 272.347656 310.433594 272.25 310.285156 272.160156 310.121094 C 270.683594 307.089844 269.800781 303.894531 269.386719 300.558594 C 269.109375 298.324219 268.957031 296.089844 268.90625 293.839844 C 268.820312 290.394531 268.554688 286.960938 268.050781 283.550781 C 267.886719 282.4375 267.648438 281.339844 267.332031 280.265625 C 266.839844 278.613281 266.246094 276.996094 265.566406 275.417969 C 265.429688 275.113281 265.277344 274.808594 265.113281 274.519531 C 264.988281 274.292969 264.734375 274.28125 264.546875 274.480469 C 264.332031 274.695312 264.140625 274.925781 263.953125 275.152344 C 263.347656 275.820312 262.667969 276.402344 261.898438 276.867188 C 261.15625 277.3125 260.347656 277.613281 259.492188 277.714844 C 258.898438 277.789062 258.316406 277.929688 257.726562 278.03125 C 257.675781 278.042969 257.585938 277.96875 257.574219 277.90625 C 257.550781 277.839844 257.5625 277.753906 257.597656 277.703125 C 257.789062 277.460938 258.089844 277.363281 258.355469 277.246094 C 258.984375 276.984375 259.515625 276.578125 260.007812 276.097656 C 260.75 275.367188 261.46875 274.597656 262.113281 273.761719 C 262.980469 272.625 263.699219 271.425781 264.15625 270.050781 C 265.289062 266.664062 266.839844 263.46875 268.71875 260.425781 C 269.789062 258.710938 270.863281 257.003906 271.933594 255.285156 C 274.71875 250.777344 276.523438 245.878906 277.492188 240.675781 C 278.171875 237.011719 278.300781 233.300781 278.109375 229.601562 C 277.996094 227.542969 277.769531 225.496094 277.566406 223.449219 C 277.417969 221.921875 277.265625 220.394531 277.078125 218.867188 C 276.824219 216.78125 276.535156 214.710938 276.28125 212.628906 C 276.066406 210.886719 275.890625 209.128906 275.703125 207.386719 C 275.5625 206.125 275.4375 204.847656 275.4375 203.574219 L 275.4375 201.78125 C 275.386719 201.832031 275.449219 201.816406 275.511719 201.816406 Z M 170.199219 115.628906 C 170.226562 116.375 170.25 117.121094 170.339844 117.863281 C 170.667969 120.441406 171.398438 122.914062 172.230469 125.367188 C 172.746094 126.867188 173.488281 128.246094 174.433594 129.519531 C 174.699219 129.886719 174.964844 130.242188 175.230469 130.605469 C 175.621094 131.125 175.847656 131.707031 175.921875 132.363281 C 176.023438 133.144531 176.125 133.929688 176.339844 134.6875 C 177.246094 137.867188 178.429688 140.9375 179.980469 143.855469 C 180.550781 144.925781 181.253906 145.886719 182.300781 146.554688 C 182.71875 146.820312 182.917969 147.1875 182.984375 147.65625 C 183.03125 148.019531 183.082031 148.398438 183.160156 148.765625 C 183.75 151.59375 184.648438 154.335938 185.617188 157.050781 C 186.261719 158.820312 187.09375 160.5 188.113281 162.0625 C 189.199219 163.71875 190.332031 165.359375 191.453125 166.988281 C 192.160156 168.011719 192.964844 168.933594 193.949219 169.703125 C 194.277344 169.957031 194.566406 170.261719 194.882812 170.523438 C 195.414062 170.96875 195.765625 171.535156 196.054688 172.152344 C 196.320312 172.734375 196.523438 173.339844 196.636719 173.972656 C 197.050781 176.144531 197.441406 178.316406 197.820312 180.488281 C 198.121094 182.257812 198.351562 184.050781 198.691406 185.804688 C 199.195312 188.417969 199.761719 191.007812 200.292969 193.621094 C 200.480469 194.542969 200.820312 195.414062 201.261719 196.25 C 201.386719 196.476562 201.539062 196.691406 201.703125 196.894531 C 201.855469 197.09375 202.132812 197.082031 202.269531 196.867188 C 202.535156 196.464844 202.773438 196.035156 203.027344 195.617188 C 204.414062 193.257812 205.914062 190.96875 207.96875 189.125 C 209.164062 188.054688 210.390625 187.003906 211.726562 186.109375 C 212.972656 185.273438 214.222656 184.46875 215.480469 183.660156 C 216.425781 183.050781 217.386719 182.472656 218.332031 181.867188 C 218.871094 181.511719 218.9375 181.371094 218.757812 180.742188 C 218.394531 179.402344 218.089844 178.050781 217.550781 176.761719 C 217.058594 175.589844 216.679688 174.375 216.503906 173.101562 C 216.390625 172.242188 216.0625 171.472656 215.542969 170.738281 C 212.519531 166.484375 209.996094 161.949219 207.878906 157.164062 C 206.542969 154.144531 205.121094 151.179688 203.71875 148.199219 C 203.328125 147.351562 202.835938 146.542969 202.269531 145.796875 C 201.527344 144.8125 200.796875 143.816406 200.039062 142.84375 C 199.195312 141.746094 198.386719 140.632812 197.972656 139.269531 C 197.71875 138.4375 197.253906 137.714844 196.710938 137.035156 C 195.488281 135.480469 194.214844 133.941406 193.144531 132.273438 C 191.90625 130.355469 190.761719 128.382812 189.347656 126.578125 C 188.933594 126.035156 188.707031 125.417969 188.644531 124.710938 C 188.578125 123.964844 188.453125 123.230469 188.152344 122.523438 C 187.546875 121.148438 186.992188 119.757812 186.375 118.394531 C 185.480469 116.414062 184.433594 114.503906 183.195312 112.710938 C 182.214844 111.273438 180.941406 110.109375 179.554688 109.074219 C 178.40625 108.214844 177.082031 108 175.722656 108.40625 C 174.070312 108.886719 172.65625 109.78125 171.472656 111.03125 C 170.894531 111.640625 170.527344 112.359375 170.339844 113.191406 C 170.210938 113.988281 170.226562 114.808594 170.199219 115.628906 Z M 263.210938 182.835938 C 263.421875 183.394531 263.195312 183.710938 263.210938 184.039062 C 263.210938 184.101562 263.246094 184.1875 263.296875 184.226562 C 263.398438 184.300781 263.511719 184.253906 263.585938 184.175781 C 263.664062 184.101562 263.738281 184.011719 263.800781 183.910156 C 264.457031 182.914062 265.085938 181.890625 265.554688 180.78125 C 266.109375 179.492188 266.398438 178.152344 266.425781 176.75 C 266.460938 174.679688 266.121094 172.660156 265.78125 170.613281 C 265.414062 168.417969 264.320312 166.699219 262.628906 165.335938 C 260.511719 163.617188 258.089844 162.46875 255.417969 161.863281 C 253.917969 161.519531 252.605469 161.875 251.460938 162.898438 C 249.53125 164.613281 247.941406 166.574219 247.074219 169.046875 C 246.769531 169.894531 246.46875 170.738281 246.140625 171.574219 C 245.988281 171.964844 246.027344 172.292969 246.277344 172.621094 C 246.441406 172.824219 246.59375 173.039062 246.746094 173.253906 C 247.550781 174.339844 248.320312 175.4375 248.988281 176.613281 C 249.757812 177.949219 250.339844 179.363281 250.628906 180.894531 C 250.816406 181.890625 250.867188 182.914062 250.566406 183.898438 C 250.363281 184.566406 250.351562 185.210938 250.425781 185.894531 C 250.640625 187.863281 250.414062 189.785156 249.707031 191.640625 C 249.265625 192.800781 248.738281 193.914062 248.082031 194.960938 C 246.570312 197.386719 244.804688 199.609375 242.710938 201.566406 C 242.246094 202.007812 241.765625 202.425781 241.300781 202.855469 C 241.136719 203.003906 240.960938 203.144531 240.808594 203.308594 C 240.453125 203.675781 240.453125 203.828125 240.808594 204.128906 C 240.921875 204.230469 241.046875 204.304688 241.160156 204.40625 C 242.320312 205.316406 242.914062 206.542969 243.089844 207.96875 C 243.253906 209.269531 243.226562 210.59375 243.039062 211.894531 C 242.648438 214.585938 241.867188 217.148438 240.746094 219.625 C 240.152344 220.925781 239.460938 222.164062 238.652344 223.335938 C 237.757812 224.613281 236.570312 225.472656 235.058594 225.863281 C 233.496094 226.265625 231.945312 226.191406 230.40625 225.75 C 229.148438 225.382812 227.9375 224.878906 226.789062 224.257812 C 226.523438 224.121094 226.261719 223.980469 225.984375 223.867188 C 225.933594 223.84375 225.832031 223.867188 225.78125 223.917969 C 225.742188 223.957031 225.71875 224.070312 225.757812 224.121094 C 226.082031 224.726562 226.601562 225.167969 227.144531 225.558594 C 228.300781 226.40625 229.550781 227.074219 230.886719 227.566406 C 231.984375 227.972656 233.105469 228.261719 234.265625 228.300781 C 235.488281 228.339844 236.671875 228.109375 237.65625 227.351562 C 239.75 225.75 241.640625 223.941406 242.761719 221.480469 C 242.976562 221 243.226562 220.546875 243.480469 220.078125 C 245.636719 216.175781 247.550781 212.160156 249.253906 208.03125 C 249.621094 207.136719 250.023438 206.238281 250.402344 205.339844 C 252.191406 201.160156 254.296875 197.171875 256.84375 193.40625 C 258.167969 191.464844 259.453125 189.480469 260.75 187.511719 C 261.003906 187.132812 261.21875 186.738281 261.445312 186.347656 C 262.125 185.261719 262.640625 184.152344 263.210938 182.835938 Z M 221.367188 169.035156 C 221.128906 169.691406 220.976562 170.109375 220.8125 170.511719 C 220.082031 172.367188 219.894531 174.289062 220.171875 176.246094 C 220.273438 176.992188 220.386719 177.722656 220.523438 178.46875 C 220.601562 178.871094 220.726562 179.265625 220.851562 179.65625 C 220.941406 179.90625 221.15625 179.996094 221.394531 179.882812 C 221.695312 179.742188 221.988281 179.566406 222.277344 179.390625 C 226.109375 176.992188 230.03125 174.742188 234.113281 172.773438 C 234.515625 172.582031 234.894531 172.332031 235.273438 172.089844 C 236.597656 171.246094 237.933594 170.425781 239.410156 169.867188 C 240.59375 169.414062 241.742188 168.820312 243.078125 169.222656 C 243.265625 169.273438 243.429688 169.136719 243.519531 168.945312 C 243.582031 168.808594 243.644531 168.667969 243.683594 168.53125 C 244.210938 166.269531 244.3125 164.007812 243.683594 161.761719 C 243.304688 160.410156 242.574219 159.324219 241.3125 158.628906 C 240.683594 158.289062 240.050781 157.972656 239.382812 157.734375 C 237.515625 157.050781 235.613281 156.582031 233.636719 156.304688 C 230.898438 155.925781 228.289062 156.332031 225.71875 157.277344 C 223.511719 158.085938 221.898438 159.539062 220.738281 161.570312 C 219.464844 163.808594 218.871094 166.207031 218.734375 168.746094 C 218.695312 169.300781 218.722656 169.867188 218.746094 170.425781 C 218.757812 170.765625 219.023438 170.878906 219.289062 170.652344 C 219.855469 170.121094 220.421875 169.589844 221.367188 169.035156 Z M 236.898438 192.222656 C 237.078125 192.207031 237.417969 192.183594 237.746094 192.132812 C 238.980469 191.941406 240.128906 191.5 241.160156 190.804688 C 243.617188 189.191406 245.710938 187.167969 247.550781 184.894531 C 248.269531 184.011719 248.726562 182.988281 249.003906 181.878906 C 249.164062 181.207031 249.164062 180.566406 248.9375 179.894531 C 248.625 178.972656 248.234375 178.078125 247.730469 177.242188 C 246.554688 175.273438 245.207031 173.441406 243.65625 171.761719 C 243.378906 171.460938 243.078125 171.183594 242.773438 170.902344 C 242.421875 170.574219 241.992188 170.472656 241.527344 170.5625 C 241.273438 170.613281 241.023438 170.6875 240.769531 170.765625 C 239.21875 171.257812 237.820312 172.039062 236.558594 173.050781 C 235.097656 174.210938 233.648438 175.398438 232.222656 176.597656 C 231.453125 177.257812 230.722656 177.949219 230.003906 178.65625 C 229.285156 179.378906 228.691406 180.199219 228.238281 181.109375 C 227.796875 182.003906 227.648438 182.925781 227.8125 183.9375 C 228.0625 185.414062 228.644531 186.726562 229.523438 187.914062 C 230.332031 189.011719 231.300781 189.921875 232.347656 190.78125 C 233.648438 191.816406 235.136719 192.171875 236.898438 192.222656 Z M 241.109375 211.542969 C 241.097656 211.25 241.085938 210.773438 241.023438 210.292969 C 240.894531 209.359375 240.632812 208.460938 240.164062 207.640625 C 239.296875 206.113281 237.921875 205.785156 236.484375 206.78125 C 236.144531 207.019531 235.828125 207.273438 235.5 207.527344 C 233.445312 209.09375 231.316406 210.53125 229.058594 211.78125 C 228.933594 211.859375 228.804688 211.933594 228.667969 212.007812 C 228.328125 212.199219 228.089844 212.476562 227.949219 212.832031 C 226.964844 215.21875 225.933594 217.578125 224.761719 219.878906 C 224.382812 220.621094 224.46875 220.863281 225.175781 221.390625 C 226.652344 222.492188 228.214844 223.4375 229.941406 224.082031 C 230.710938 224.371094 231.492188 224.636719 232.3125 224.75 C 234.441406 225.03125 236.359375 224.585938 237.667969 222.730469 C 238.929688 220.949219 239.835938 218.980469 240.316406 216.832031 C 240.53125 215.847656 240.667969 214.851562 240.871094 213.851562 C 241.007812 213.160156 241.058594 212.453125 241.109375 211.542969 Z M 241.109375 211.542969 " fill-opacity="1" fill-rule="nonzero"/></g><path fill="#000000" d="M 259.679688 278.953125 C 259.492188 279.332031 259.1875 279.40625 258.921875 279.535156 C 257.082031 280.378906 255.152344 280.898438 253.125 281.136719 C 251.03125 281.390625 248.953125 281.3125 246.859375 281.328125 C 244.5 281.339844 242.15625 281.441406 239.824219 281.757812 C 237.84375 282.019531 235.953125 282.589844 234.175781 283.472656 C 233.003906 284.054688 231.832031 284.636719 230.597656 285.078125 C 230.066406 285.265625 229.523438 285.632812 228.921875 285.292969 C 229.097656 284.710938 229.613281 284.433594 230.054688 284.117188 C 230.535156 283.765625 231.074219 283.5 231.59375 283.207031 C 232.574219 282.664062 233.558594 282.148438 234.542969 281.59375 C 236.410156 280.53125 238.351562 279.699219 240.480469 279.34375 C 241.300781 279.207031 242.117188 279.191406 242.9375 279.269531 C 244.351562 279.382812 245.761719 279.535156 247.160156 279.75 C 251.058594 280.355469 254.902344 280.152344 258.707031 279.128906 C 258.921875 279.066406 259.136719 279.003906 259.351562 278.953125 C 259.425781 278.941406 259.503906 278.953125 259.679688 278.953125 Z M 259.679688 278.953125 " fill-opacity="1" fill-rule="nonzero"/><path fill="#000000" d="M 221.457031 208.335938 C 219.101562 207.957031 217.121094 207.007812 215.671875 205.050781 C 214.195312 203.054688 212.796875 201.046875 211.863281 198.722656 C 211.371094 197.5 211.09375 196.238281 210.816406 194.960938 C 211.082031 194.910156 211.082031 195.101562 211.132812 195.214844 C 211.335938 195.65625 211.523438 196.097656 211.726562 196.550781 C 212.921875 199.28125 214.574219 201.730469 216.527344 203.964844 C 217.511719 205.101562 218.644531 206.074219 219.867188 206.957031 C 220.421875 207.375 220.992188 207.777344 221.457031 208.335938 Z M 221.457031 208.335938 " fill-opacity="1" fill-rule="nonzero"/><path fill="#000000" d="M 207.617188 200.226562 C 208.054688 200.832031 208.410156 201.3125 208.761719 201.792969 C 209.328125 202.574219 209.898438 203.371094 210.464844 204.15625 C 211.6875 205.808594 213.175781 207.136719 215.027344 208.042969 C 215.457031 208.257812 215.910156 208.460938 216.25 208.816406 C 216.289062 208.851562 216.328125 208.953125 216.300781 209.015625 C 216.289062 209.066406 216.199219 209.105469 216.148438 209.144531 C 216.125 209.15625 216.074219 209.167969 216.035156 209.15625 C 214.132812 208.851562 212.304688 208.359375 210.980469 206.78125 C 210.453125 206.148438 209.960938 205.492188 209.53125 204.785156 C 208.824219 203.597656 208.246094 202.335938 207.679688 201.074219 C 207.617188 200.882812 207.5 200.683594 207.617188 200.226562 Z M 207.617188 200.226562 " fill-opacity="1" fill-rule="nonzero"/><path fill="#000000" d="M 277.378906 164.515625 C 278.285156 164.285156 279.15625 164.261719 280.027344 164.539062 C 280.746094 164.765625 281.414062 165.09375 282.042969 165.511719 C 283.140625 166.230469 284.125 167.089844 285.019531 168.0625 C 285.207031 168.265625 285.460938 168.464844 285.460938 168.78125 C 285.28125 168.910156 285.15625 168.820312 285.019531 168.769531 C 284.351562 168.515625 283.71875 168.175781 283.140625 167.773438 C 281.335938 166.496094 279.535156 165.222656 277.378906 164.515625 Z M 277.378906 164.515625 " fill-opacity="1" fill-rule="nonzero"/><path fill="#000000" d="M 211.925781 209.609375 C 210.917969 209.648438 210.210938 209.421875 209.582031 208.992188 C 208.285156 208.105469 207.351562 206.894531 206.59375 205.554688 C 206.519531 205.429688 206.480469 205.253906 206.621094 205.152344 C 206.757812 205.039062 206.898438 205.128906 207.023438 205.214844 C 207.148438 205.304688 207.261719 205.390625 207.375 205.492188 C 207.578125 205.65625 207.777344 205.820312 207.980469 205.984375 C 209.003906 206.871094 210.136719 207.601562 211.347656 208.195312 C 211.777344 208.410156 212.203125 208.648438 212.632812 208.890625 C 212.785156 208.980469 213.011719 209.066406 212.949219 209.292969 C 212.898438 209.496094 212.65625 209.507812 212.480469 209.546875 C 212.214844 209.585938 211.953125 209.597656 211.925781 209.609375 Z M 211.925781 209.609375 " fill-opacity="1" fill-rule="nonzero"/><path fill="#000000" d="M 276.988281 189.328125 C 276.898438 189.265625 276.785156 189.226562 276.710938 189.152344 C 275.625 188.242188 274.367188 187.699219 273.003906 187.382812 C 272.234375 187.207031 271.492188 186.980469 270.773438 186.664062 C 270.015625 186.335938 269.335938 185.90625 268.742188 185.324219 C 268.90625 185.148438 269.058594 185.238281 269.183594 185.273438 C 270.699219 185.703125 272.210938 186.121094 273.699219 186.589844 C 275.136719 187.042969 276.21875 187.976562 276.988281 189.328125 Z M 276.988281 189.328125 " fill-opacity="1" fill-rule="nonzero"/><path fill="#000000" d="M 283.847656 149.648438 C 284.941406 149.410156 285.875 149.535156 286.757812 150.003906 C 287.125 150.191406 287.464844 150.421875 287.804688 150.648438 C 288.609375 151.191406 289.457031 151.660156 290.3125 152.101562 C 290.527344 152.203125 290.957031 152.238281 290.828125 152.542969 C 290.730469 152.78125 290.351562 152.566406 290.109375 152.53125 C 289.328125 152.402344 288.609375 152.113281 287.917969 151.746094 C 286.667969 151.089844 285.433594 150.40625 284.097656 149.914062 C 284.035156 149.890625 283.996094 149.816406 283.847656 149.648438 Z M 283.847656 149.648438 " fill-opacity="1" fill-rule="nonzero"/><path fill="#000000" d="M 282.886719 150.914062 C 284.238281 150.824219 285.28125 151.089844 286.253906 151.558594 C 287.566406 152.175781 288.824219 152.882812 290.109375 153.550781 C 290.160156 153.578125 290.1875 153.652344 290.238281 153.714844 C 290.175781 153.742188 290.109375 153.804688 290.046875 153.792969 C 288.886719 153.679688 287.792969 153.351562 286.769531 152.792969 C 286.152344 152.453125 285.558594 152.074219 284.957031 151.707031 C 284.375 151.367188 283.71875 151.242188 282.886719 150.914062 Z M 282.886719 150.914062 " fill-opacity="1" fill-rule="nonzero"/><path fill="#000000" d="M 284.035156 169.945312 C 283.757812 170.082031 283.53125 169.882812 283.316406 169.78125 C 282.710938 169.503906 282.105469 169.199219 281.527344 168.871094 C 280.226562 168.125 278.890625 167.507812 277.429688 167.152344 C 277.328125 167.128906 277.203125 167.140625 277.175781 166.988281 C 277.328125 166.773438 277.582031 166.851562 277.769531 166.875 C 279.105469 167.039062 280.40625 167.367188 281.539062 168.125 C 282.246094 168.59375 282.964844 169.074219 283.667969 169.550781 C 283.820312 169.640625 284.023438 169.71875 284.035156 169.945312 Z M 284.035156 169.945312 " fill-opacity="1" fill-rule="nonzero"/><path fill="#000000" d="M 270.976562 187.976562 C 271.074219 187.988281 271.1875 187.988281 271.289062 188.039062 C 272.5625 188.558594 273.773438 189.203125 274.933594 189.933594 C 275.375 190.210938 275.777344 190.542969 276.066406 190.984375 C 276.128906 191.085938 276.117188 191.199219 276.03125 191.285156 C 275.980469 191.324219 275.890625 191.363281 275.828125 191.335938 C 275.589844 191.25 275.347656 191.160156 275.109375 191.035156 C 274.277344 190.605469 273.535156 190.0625 272.839844 189.429688 C 272.285156 188.898438 271.695312 188.40625 270.976562 187.976562 Z M 270.976562 187.976562 " fill-opacity="1" fill-rule="nonzero"/><path fill="#000000" d="M 195.890625 139.964844 C 195.992188 140.242188 195.804688 140.355469 195.691406 140.480469 C 194.820312 141.429688 193.796875 142.1875 192.652344 142.742188 C 190.507812 143.789062 188.289062 144.6875 186.046875 145.507812 C 185.667969 145.648438 185.277344 145.8125 184.847656 145.773438 C 184.785156 145.773438 184.695312 145.722656 184.671875 145.671875 C 184.648438 145.621094 184.671875 145.519531 184.710938 145.46875 C 184.808594 145.371094 184.9375 145.269531 185.0625 145.207031 C 185.554688 144.941406 186.046875 144.660156 186.5625 144.433594 C 187.875 143.878906 189.183594 143.347656 190.507812 142.84375 C 192.019531 142.261719 193.445312 141.566406 194.757812 140.597656 C 195.097656 140.34375 195.449219 140.066406 195.890625 139.964844 Z M 195.890625 139.964844 " fill-opacity="1" fill-rule="nonzero"/><path fill="#000000" d="M 199.257812 173.289062 C 200.140625 171.914062 201.363281 170.980469 202.75 170.324219 C 204.566406 169.464844 206.441406 168.71875 208.296875 167.9375 C 208.398438 167.898438 208.523438 167.886719 208.5625 168.023438 C 208.574219 168.085938 208.546875 168.175781 208.511719 168.226562 C 208.257812 168.605469 207.894531 168.882812 207.527344 169.136719 C 206.847656 169.601562 206.113281 169.96875 205.371094 170.308594 C 203.882812 170.992188 202.382812 171.675781 200.910156 172.382812 C 200.328125 172.648438 199.800781 172.988281 199.257812 173.289062 Z M 199.257812 173.289062 " fill-opacity="1" fill-rule="nonzero"/><path fill="#000000" d="M 208.726562 164.777344 C 208.699219 164.867188 208.6875 164.980469 208.636719 165.082031 C 208.398438 165.601562 208.042969 166.03125 207.664062 166.433594 C 207.210938 166.925781 206.707031 167.378906 206.164062 167.773438 C 205.105469 168.542969 203.996094 169.222656 202.851562 169.855469 C 201.527344 170.574219 200.078125 170.902344 198.601562 171.183594 C 198.5 171.207031 198.375 171.183594 198.351562 171.042969 C 198.335938 170.992188 198.398438 170.902344 198.464844 170.878906 C 198.691406 170.765625 198.929688 170.652344 199.183594 170.5625 C 200.582031 170.058594 201.929688 169.414062 203.265625 168.746094 C 205.042969 167.847656 206.644531 166.699219 207.96875 165.195312 C 208.132812 165.007812 208.347656 164.84375 208.535156 164.679688 C 208.546875 164.664062 208.609375 164.679688 208.636719 164.691406 C 208.675781 164.691406 208.6875 164.730469 208.726562 164.777344 Z M 208.726562 164.777344 " fill-opacity="1" fill-rule="nonzero"/><path fill="#000000" d="M 186.296875 126.730469 C 185.757812 127.121094 185.214844 127.5 184.671875 127.902344 C 184.621094 127.941406 184.570312 128.03125 184.582031 128.09375 C 184.609375 128.234375 184.734375 128.234375 184.835938 128.195312 C 185.152344 128.082031 185.464844 127.96875 185.78125 127.855469 C 185.945312 127.789062 186.109375 127.675781 186.3125 127.765625 C 185.804688 128.484375 185.316406 128.761719 182.640625 129.863281 C 182.554688 129.835938 182.542969 129.785156 182.566406 129.699219 C 182.640625 129.445312 183.144531 129.320312 182.90625 129.003906 C 182.742188 128.800781 182.429688 129.054688 182.1875 129.140625 C 181.355469 129.445312 180.523438 129.773438 179.703125 130.089844 C 179.503906 129.925781 179.628906 129.796875 179.730469 129.722656 C 179.996094 129.507812 180.257812 129.304688 180.550781 129.140625 C 180.964844 128.902344 181.40625 128.675781 181.847656 128.484375 C 183.308594 127.867188 184.785156 127.261719 186.296875 126.730469 Z M 186.296875 126.730469 " fill-opacity="1" fill-rule="nonzero"/><path fill="#000000" d="M 187.027344 124.582031 C 186.132812 125.617188 185.175781 126.390625 184.003906 126.816406 C 182.578125 127.359375 181.117188 127.816406 179.667969 128.308594 C 179.566406 128.347656 179.441406 128.347656 179.402344 128.207031 C 179.390625 128.144531 179.425781 128.054688 179.476562 128.003906 C 179.769531 127.652344 180.132812 127.398438 180.523438 127.183594 C 181.140625 126.84375 181.796875 126.539062 182.476562 126.351562 C 183.828125 125.984375 185.074219 125.417969 186.296875 124.757812 C 186.5 124.671875 186.664062 124.496094 187.027344 124.582031 Z M 187.027344 124.582031 " fill-opacity="1" fill-rule="nonzero"/><path fill="#000000" d="M 195.691406 142.441406 C 194.0625 143.511719 192.25 144.195312 190.558594 145.140625 C 188.855469 146.101562 186.964844 146.59375 185.152344 147.402344 C 185.164062 147.085938 185.414062 147.035156 185.566406 146.933594 C 186.511719 146.328125 187.535156 145.863281 188.554688 145.394531 C 190.355469 144.585938 192.160156 143.765625 193.960938 142.945312 C 194.503906 142.703125 195.046875 142.464844 195.589844 142.226562 C 195.625 142.300781 195.664062 142.375 195.691406 142.441406 Z M 195.691406 142.441406 " fill-opacity="1" fill-rule="nonzero"/><path fill="#000000" d="M 189.121094 146.960938 C 189.5625 146.316406 190.167969 145.976562 190.796875 145.671875 C 191.84375 145.179688 192.902344 144.699219 193.949219 144.21875 C 194.417969 144.003906 194.84375 143.675781 195.375 143.574219 C 195.511719 143.828125 195.300781 143.929688 195.183594 144.03125 C 194.0625 144.964844 192.828125 145.75 191.453125 146.253906 C 190.683594 146.519531 189.902344 146.71875 189.121094 146.960938 Z M 189.121094 146.960938 " fill-opacity="1" fill-rule="nonzero"/><path fill="#000000" d="M 263.109375 172.417969 C 261.269531 171.296875 259.277344 170.425781 257.636719 168.984375 C 256.210938 167.734375 254.625 166.785156 252.785156 166.269531 C 252.683594 166.242188 252.59375 166.179688 252.507812 166.128906 C 252.53125 165.890625 252.722656 165.914062 252.847656 165.902344 C 254.726562 165.699219 256.390625 166.167969 257.828125 167.457031 C 258.886719 168.402344 260.007812 169.273438 261.105469 170.183594 C 261.886719 170.828125 262.542969 171.574219 263.109375 172.417969 Z M 263.109375 172.417969 " fill-opacity="1" fill-rule="nonzero"/><path fill="#000000" d="M 263.625 169.832031 C 263.195312 169.640625 262.957031 169.363281 262.71875 169.109375 C 262.226562 168.605469 261.746094 168.074219 261.242188 167.570312 C 259.882812 166.167969 258.292969 165.195312 256.339844 164.84375 C 255.570312 164.703125 254.824219 164.425781 254.082031 164.210938 C 253.96875 164.171875 253.894531 164.070312 253.929688 163.957031 C 253.945312 163.894531 254.019531 163.820312 254.082031 163.808594 C 254.296875 163.742188 254.511719 163.679688 254.738281 163.679688 C 257.777344 163.566406 260.296875 164.589844 262.074219 167.152344 C 262.578125 167.886719 263.046875 168.667969 263.511719 169.425781 C 263.5625 169.503906 263.574219 169.617188 263.625 169.832031 Z M 263.625 169.832031 " fill-opacity="1" fill-rule="nonzero"/><path fill="#000000" d="M 254.09375 168.757812 C 254.8125 168.679688 255.332031 168.71875 255.910156 169.035156 C 257.144531 169.691406 258.253906 170.523438 259.300781 171.484375 C 258.46875 171.019531 257.625 170.5625 256.804688 170.070312 C 256.035156 169.601562 255.253906 169.1875 254.398438 168.933594 C 254.296875 168.894531 254.207031 168.832031 254.09375 168.757812 Z M 254.09375 168.757812 " fill-opacity="1" fill-rule="nonzero"/><path fill="#000000" d="M 239.054688 159.867188 C 238.007812 159.804688 237.140625 159.601562 236.28125 159.386719 C 235.703125 159.246094 235.136719 159.058594 234.554688 158.917969 C 232.574219 158.453125 230.570312 158.339844 228.578125 158.855469 C 227.417969 159.160156 226.375 159.742188 225.328125 160.320312 C 224.949219 160.535156 224.558594 160.738281 224.15625 160.953125 C 224.128906 160.839844 224.105469 160.800781 224.117188 160.777344 C 225.945312 158.804688 228.125 157.632812 230.886719 157.582031 C 232.867188 157.554688 234.746094 157.847656 236.535156 158.71875 C 237.101562 158.996094 237.71875 159.171875 238.3125 159.386719 C 238.539062 159.476562 238.765625 159.578125 239.054688 159.867188 Z M 239.054688 159.867188 " fill-opacity="1" fill-rule="nonzero"/><path fill="#000000" d="M 238.527344 161.332031 C 237.277344 161.535156 236.015625 161.585938 234.757812 161.433594 C 232.890625 161.21875 231.023438 161.269531 229.160156 161.332031 C 228.464844 161.355469 227.773438 161.546875 227.09375 161.660156 C 226.992188 161.421875 227.15625 161.34375 227.28125 161.292969 C 229.613281 160.070312 232.070312 159.664062 234.65625 160.285156 C 235.953125 160.597656 237.242188 160.976562 238.527344 161.332031 Z M 238.527344 161.332031 " fill-opacity="1" fill-rule="nonzero"/><path fill="#000000" d="M 235.640625 162.808594 C 233.835938 162.859375 232.019531 162.59375 230.230469 163.351562 C 230.257812 163.148438 230.242188 163.050781 230.28125 163.023438 C 230.671875 162.644531 231.152344 162.457031 231.667969 162.355469 C 232.714844 162.164062 234.46875 162.34375 235.640625 162.808594 Z M 235.640625 162.808594 " fill-opacity="1" fill-rule="nonzero"/><path fill="#000000" d="M 136.101562 255.628906 C 135.769531 255.976562 135.402344 256.285156 135 256.554688 C 133.828125 257.300781 132.554688 257.789062 131.1875 258.015625 C 129.988281 258.183594 128.792969 258.199219 127.589844 258.070312 C 126.390625 257.941406 125.222656 257.667969 124.089844 257.253906 C 122.957031 256.835938 121.886719 256.289062 120.886719 255.609375 C 119.890625 254.929688 118.984375 254.140625 118.179688 253.238281 C 116.304688 251.214844 114.929688 248.894531 114.054688 246.277344 C 113.5 244.605469 113.132812 242.894531 112.953125 241.140625 C 112.800781 239.429688 112.800781 237.714844 112.953125 236.003906 C 112.953125 236.003906 114.515625 237.492188 116.566406 239.855469 C 118.613281 242.21875 121.175781 245.351562 123.734375 248.078125 C 126.097656 250.648438 128.847656 252.703125 131.980469 254.242188 C 132.941406 254.691406 133.929688 255.058594 134.949219 255.347656 Z M 136.101562 255.628906 " fill-opacity="1" fill-rule="nonzero"/><path fill="#000000" d="M 107.015625 273.25 C 106.445312 274.125 105.683594 274.773438 104.734375 275.203125 C 102.328125 276.289062 99.8125 276.949219 97.183594 277.179688 C 96.414062 277.179688 95.902344 277.359375 95.339844 277.359375 L 94.492188 277.359375 C 94.3125 277.351562 94.136719 277.351562 93.957031 277.359375 C 93.71875 277.429688 93.523438 277.367188 93.367188 277.179688 C 93.269531 276.992188 93.269531 276.804688 93.367188 276.617188 C 93.367188 276.488281 93.367188 276.488281 93.519531 276.230469 C 93.726562 275.960938 93.949219 275.703125 94.1875 275.460938 C 95.253906 274.390625 96.425781 273.449219 97.695312 272.632812 C 99.921875 271.214844 102.320312 270.203125 104.890625 269.601562 C 105.9375 269.347656 106.992188 269.160156 108.0625 269.039062 C 108.0625 269.398438 108.0625 269.757812 108.0625 270.140625 C 107.949219 271.257812 107.597656 272.292969 107.015625 273.25 Z M 107.015625 273.25 " fill-opacity="1" fill-rule="nonzero"/><g clip-path="url(#0ad9ae3d75)"><path fill="#000000" d="M 115.003906 271.785156 C 115.15625 269.960938 115.003906 268.496094 115.003906 267.109375 C 115.003906 265.722656 115.003906 264.3125 115.003906 262.949219 C 115.003906 257.582031 114.59375 252.675781 114.261719 248.796875 C 114.261719 247.949219 114.132812 247.152344 114.054688 246.226562 C 113.519531 240.214844 113.007812 236.492188 112.878906 235.953125 C 111.910156 239.6875 111.132812 243.464844 110.546875 247.28125 C 109.933594 251.03125 109.269531 255.679688 108.703125 261.203125 C 108.523438 263.179688 108.320312 265.234375 108.117188 267.417969 C 107.023438 267.210938 105.921875 267.066406 104.8125 266.984375 C 102.304688 266.902344 99.851562 267.226562 97.453125 267.953125 C 95.050781 268.679688 92.828125 269.765625 90.78125 271.222656 C 90.300781 271.566406 89.839844 271.933594 89.398438 272.324219 C 88.816406 272.859375 88.3125 273.460938 87.886719 274.125 C 87.421875 274.832031 87.101562 275.601562 86.929688 276.429688 C 86.757812 277.257812 86.742188 278.09375 86.886719 278.925781 C 87.039062 279.550781 87.269531 280.140625 87.582031 280.699219 C 87.894531 281.261719 88.277344 281.765625 88.726562 282.21875 C 89.179688 282.671875 89.683594 283.054688 90.242188 283.371094 C 90.800781 283.683594 91.386719 283.914062 92.007812 284.066406 C 92.753906 284.269531 93.1875 284.320312 93.648438 284.425781 L 95.082031 284.425781 C 95.9375 284.476562 96.789062 284.476562 97.644531 284.425781 C 101.308594 284.355469 104.808594 283.550781 108.140625 282.007812 C 110.132812 280.980469 111.753906 279.535156 113.007812 277.667969 C 114.167969 275.875 114.832031 273.914062 115.003906 271.785156 Z M 104.761719 275.203125 C 102.355469 276.289062 99.835938 276.949219 97.207031 277.179688 C 96.4375 277.179688 95.925781 277.359375 95.363281 277.359375 L 94.492188 277.359375 C 94.3125 277.351562 94.136719 277.351562 93.957031 277.359375 C 93.71875 277.429688 93.523438 277.367188 93.367188 277.179688 C 93.269531 276.992188 93.269531 276.804688 93.367188 276.617188 C 93.367188 276.488281 93.367188 276.488281 93.519531 276.230469 C 93.726562 275.960938 93.949219 275.703125 94.1875 275.460938 C 95.253906 274.390625 96.425781 273.449219 97.695312 272.632812 C 99.921875 271.214844 102.320312 270.203125 104.890625 269.601562 C 105.9375 269.347656 106.992188 269.160156 108.0625 269.039062 C 108.0625 269.398438 108.0625 269.757812 108.0625 270.140625 C 107.949219 271.257812 107.597656 272.292969 107.015625 273.25 C 106.429688 274.132812 105.652344 274.785156 104.683594 275.203125 Z M 104.761719 275.203125 " fill-opacity="1" fill-rule="nonzero"/></g><g clip-path="url(#6c5d39f954)"><path fill="#000000" d="M 187.109375 185.964844 L 185.851562 185.5 L 182.449219 184.34375 C 179.605469 183.445312 175.839844 182.238281 171.539062 181.160156 C 167.238281 180.082031 163.347656 179.363281 160.425781 178.746094 L 156.894531 178.15625 L 155.664062 178.050781 C 155.664062 178.050781 155.871094 178.410156 156.332031 179.054688 C 157.015625 179.984375 157.78125 180.84375 158.632812 181.621094 C 161.902344 184.636719 165.691406 186.675781 170.003906 187.734375 C 174.101562 188.722656 178.195312 188.722656 182.292969 187.734375 C 183.496094 187.398438 184.667969 186.972656 185.800781 186.453125 Z M 187.109375 185.964844 " fill-opacity="1" fill-rule="nonzero"/></g><path fill="#000000" d="M 174.355469 222.414062 C 173.53125 224.222656 172.285156 225.660156 170.617188 226.730469 C 170.027344 227.140625 169.375 227.394531 168.664062 227.5 C 167.953125 227.605469 167.253906 227.542969 166.574219 227.320312 C 165.996094 227.074219 165.519531 226.699219 165.140625 226.203125 C 164.761719 225.703125 164.53125 225.140625 164.445312 224.519531 C 164.480469 223.902344 164.679688 223.34375 165.046875 222.84375 C 165.414062 222.34375 165.890625 221.988281 166.46875 221.773438 C 167.671875 221.324219 168.910156 221.125 170.191406 221.183594 C 171.472656 221.242188 172.6875 221.550781 173.84375 222.105469 C 174.019531 222.199219 174.191406 222.300781 174.355469 222.414062 Z M 174.355469 222.414062 " fill-opacity="1" fill-rule="nonzero"/><g clip-path="url(#c1e58e4c7b)"><path fill="#000000" d="M 186.75 197.421875 C 187.082031 193.824219 187.160156 190.972656 187.160156 189.019531 C 187.160156 187.066406 187.160156 185.964844 187.160156 185.964844 C 187.160156 186.167969 185.800781 189.558594 183.703125 195.726562 C 182.625 198.882812 181.320312 202.789062 179.785156 207.386719 C 179.015625 209.671875 178.171875 212.140625 177.222656 214.785156 C 176.277344 217.429688 175.714844 219.539062 174.664062 221.644531 L 174.382812 221.414062 C 173.425781 220.605469 172.382812 219.929688 171.257812 219.382812 C 169.566406 218.535156 167.78125 218.242188 165.90625 218.511719 C 164.714844 218.671875 163.613281 219.085938 162.605469 219.742188 C 161.375 220.589844 160.519531 221.71875 160.042969 223.132812 C 159.460938 224.742188 159.460938 226.351562 160.042969 227.964844 C 160.628906 229.566406 161.585938 230.902344 162.910156 231.96875 C 163.617188 232.523438 164.386719 232.96875 165.214844 233.304688 C 166.082031 233.636719 166.976562 233.828125 167.902344 233.871094 C 169.691406 233.964844 171.398438 233.636719 173.023438 232.894531 C 174.601562 232.140625 176.011719 231.140625 177.25 229.902344 C 178.488281 228.667969 179.488281 227.257812 180.246094 225.675781 C 181.496094 223.019531 182.460938 220.261719 183.140625 217.40625 C 183.832031 214.835938 184.367188 212.269531 184.855469 209.957031 C 185.71875 205.8125 186.351562 201.632812 186.75 197.421875 Z M 174.304688 222.570312 C 173.480469 224.375 172.234375 225.8125 170.566406 226.882812 C 169.976562 227.292969 169.324219 227.550781 168.613281 227.652344 C 167.902344 227.757812 167.203125 227.699219 166.519531 227.476562 C 165.945312 227.226562 165.46875 226.855469 165.089844 226.355469 C 164.710938 225.855469 164.480469 225.296875 164.394531 224.675781 C 164.429688 224.054688 164.628906 223.496094 164.996094 222.996094 C 165.363281 222.496094 165.839844 222.140625 166.417969 221.925781 C 167.621094 221.476562 168.859375 221.28125 170.140625 221.339844 C 171.421875 221.398438 172.636719 221.703125 173.792969 222.261719 C 173.984375 222.328125 174.171875 222.402344 174.355469 222.492188 Z M 174.304688 222.570312 " fill-opacity="1" fill-rule="nonzero"/></g><path fill="#000000" d="M 144.167969 208.671875 C 143.984375 209.097656 143.773438 209.511719 143.527344 209.90625 C 143.136719 210.597656 142.597656 211.144531 141.914062 211.546875 C 140.925781 212.023438 139.886719 212.28125 138.789062 212.320312 C 137.535156 212.449219 135.871094 212.523438 134.71875 212.523438 C 133.890625 212.601562 133.09375 212.464844 132.339844 212.113281 C 132.101562 212.011719 131.898438 211.867188 131.722656 211.675781 C 131.609375 211.605469 131.542969 211.5 131.519531 211.367188 C 131.433594 211.171875 131.433594 210.976562 131.519531 210.777344 C 131.785156 210.398438 132.117188 210.089844 132.515625 209.851562 C 133.519531 209.242188 134.59375 208.824219 135.742188 208.59375 C 137.816406 208.121094 139.910156 208.027344 142.015625 208.3125 C 142.742188 208.390625 143.457031 208.511719 144.167969 208.671875 Z M 144.167969 208.671875 " fill-opacity="1" fill-rule="nonzero"/><path fill="#000000" d="M 154.769531 189.765625 C 155.535156 182.597656 155.535156 178.050781 155.535156 178.050781 C 155.535156 178.050781 153.921875 181.929688 151.566406 188.507812 C 150.390625 191.742188 149.007812 195.671875 147.417969 200.09375 L 144.910156 207 L 144.730469 207.488281 C 144.1875 207.140625 143.621094 206.824219 143.042969 206.539062 C 140.785156 205.441406 138.402344 204.859375 135.898438 204.792969 C 134.148438 204.703125 132.441406 204.933594 130.777344 205.484375 C 129.707031 205.847656 128.75 206.40625 127.910156 207.15625 C 127.402344 207.597656 126.980469 208.109375 126.640625 208.691406 C 126.304688 209.273438 126.070312 209.894531 125.9375 210.554688 C 125.804688 211.214844 125.785156 211.878906 125.871094 212.546875 C 125.957031 213.210938 126.152344 213.847656 126.449219 214.453125 C 126.945312 215.457031 127.628906 216.3125 128.496094 217.019531 C 130.152344 218.269531 132.011719 218.957031 134.078125 219.074219 C 135.726562 219.191406 137.375 219.191406 139.019531 219.074219 C 141.144531 219.035156 143.148438 218.53125 145.039062 217.558594 C 146.722656 216.617188 148.046875 215.308594 149.007812 213.628906 C 149.777344 212.316406 150.375 210.929688 150.800781 209.46875 C 151.566406 206.898438 152.15625 204.5625 152.644531 202.222656 C 153.769531 197.574219 154.359375 193.335938 154.769531 189.765625 Z M 143.527344 209.90625 C 143.136719 210.597656 142.597656 211.144531 141.914062 211.546875 C 140.925781 212.023438 139.886719 212.28125 138.789062 212.320312 C 137.535156 212.449219 135.871094 212.523438 134.71875 212.523438 C 133.890625 212.601562 133.09375 212.464844 132.339844 212.113281 C 132.101562 212.011719 131.898438 211.867188 131.722656 211.675781 C 131.609375 211.605469 131.542969 211.5 131.519531 211.367188 C 131.433594 211.171875 131.433594 210.976562 131.519531 210.777344 C 131.785156 210.398438 132.117188 210.089844 132.515625 209.851562 C 133.519531 209.242188 134.59375 208.824219 135.742188 208.59375 C 137.816406 208.121094 139.910156 208.027344 142.015625 208.3125 C 142.707031 208.394531 143.390625 208.515625 144.066406 208.671875 C 143.917969 209.097656 143.738281 209.507812 143.527344 209.90625 Z M 143.527344 209.90625 " fill-opacity="1" fill-rule="nonzero"/><path fill="#000000" d="M 89.089844 135.078125 C 89.136719 135.597656 89.21875 136.109375 89.347656 136.617188 C 89.714844 138.074219 90.332031 139.417969 91.191406 140.652344 C 92.699219 142.617188 94.460938 144.320312 96.476562 145.761719 C 98.492188 147.199219 100.675781 148.3125 103.019531 149.101562 C 108.140625 150.976562 112.316406 152.054688 115.183594 153.496094 C 116.371094 154.105469 117.496094 154.816406 118.5625 155.625 L 119.765625 156.550781 C 119.722656 156.082031 119.644531 155.621094 119.535156 155.164062 C 119.175781 153.816406 118.605469 152.566406 117.820312 151.414062 C 116.511719 149.570312 114.925781 148.011719 113.058594 146.738281 C 110.679688 145.097656 108.136719 143.78125 105.425781 142.78125 C 100.640625 141.011719 96.464844 139.878906 93.546875 138.363281 C 92.332031 137.75 91.207031 137.003906 90.167969 136.128906 C 89.398438 135.488281 89.089844 135.078125 89.089844 135.078125 Z M 89.089844 135.078125 " fill-opacity="1" fill-rule="nonzero"/><path fill="#000000" d="M 97.976562 176.175781 C 97.492188 177.15625 96.863281 178.03125 96.085938 178.796875 C 95.308594 179.5625 94.429688 180.179688 93.445312 180.644531 C 92.679688 181.128906 91.855469 181.4375 90.964844 181.570312 C 90.074219 181.703125 89.191406 181.652344 88.324219 181.417969 C 87.988281 181.234375 87.6875 181.003906 87.421875 180.734375 C 87.15625 180.460938 86.9375 180.15625 86.761719 179.816406 C 86.585938 179.476562 86.464844 179.121094 86.394531 178.746094 C 86.324219 178.371094 86.308594 177.996094 86.351562 177.617188 C 86.320312 175.796875 86.875 174.175781 88.015625 172.761719 C 90.175781 170.488281 92.734375 168.84375 95.695312 167.828125 L 97.027344 167.316406 L 97.488281 168.804688 C 97.980469 169.96875 98.269531 171.1875 98.351562 172.449219 C 98.4375 173.714844 98.3125 174.957031 97.976562 176.175781 Z M 97.976562 176.175781 " fill-opacity="1" fill-rule="nonzero"/><g clip-path="url(#287832c737)"><path fill="#000000" d="M 105.015625 172.605469 C 104.785156 170.839844 104.351562 169.128906 103.710938 167.46875 C 102.609375 164.589844 101.585938 162.023438 100.535156 159.503906 C 98.4375 154.574219 96.464844 150.179688 94.75 146.558594 C 91.496094 139.675781 89.089844 135.511719 89.089844 135.078125 C 89.089844 135.566406 89.707031 139.597656 91.292969 146.585938 C 92.136719 150.308594 93.289062 154.882812 94.828125 160.226562 C 95.414062 162.226562 96.03125 164.359375 96.722656 166.59375 L 95.542969 166.722656 C 94.175781 166.84375 92.828125 167.074219 91.496094 167.417969 C 89.570312 167.871094 87.792969 168.664062 86.171875 169.804688 C 85.0625 170.582031 84.128906 171.53125 83.363281 172.648438 C 82.601562 173.769531 82.0625 174.988281 81.742188 176.304688 C 81.375 177.898438 81.375 179.492188 81.742188 181.082031 C 81.9375 182.035156 82.289062 182.925781 82.800781 183.75 C 83.3125 184.574219 83.949219 185.289062 84.710938 185.886719 C 85.507812 186.519531 86.390625 187.003906 87.351562 187.339844 C 88.3125 187.675781 89.300781 187.839844 90.320312 187.839844 C 92.21875 187.851562 94.046875 187.492188 95.800781 186.761719 C 97.507812 186.042969 99.070312 185.085938 100.484375 183.882812 C 102.121094 182.515625 103.367188 180.855469 104.222656 178.898438 C 105.046875 176.871094 105.3125 174.773438 105.015625 172.605469 Z M 97.976562 176.175781 C 97.492188 177.15625 96.863281 178.03125 96.085938 178.796875 C 95.308594 179.5625 94.429688 180.179688 93.445312 180.644531 C 92.679688 181.128906 91.855469 181.4375 90.964844 181.570312 C 90.074219 181.703125 89.191406 181.652344 88.324219 181.417969 C 87.988281 181.234375 87.6875 181.003906 87.421875 180.734375 C 87.15625 180.460938 86.9375 180.15625 86.761719 179.816406 C 86.585938 179.476562 86.464844 179.121094 86.394531 178.746094 C 86.324219 178.371094 86.308594 177.996094 86.351562 177.617188 C 86.320312 175.796875 86.875 174.175781 88.015625 172.761719 C 90.175781 170.488281 92.734375 168.84375 95.695312 167.828125 L 97.027344 167.316406 L 97.488281 168.804688 C 97.980469 169.96875 98.269531 171.1875 98.351562 172.449219 C 98.4375 173.714844 98.3125 174.957031 97.976562 176.175781 Z M 97.976562 176.175781 " fill-opacity="1" fill-rule="nonzero"/></g></svg>